<?xml version="1.0"?>
<svg xmlns="http://www.w3.org/2000/svg" xmlns:xlink="http://www.w3.org/1999/xlink" version="1.1" id="Layer_1" x="0px" y="0px" viewBox="0 0 370 370" style="enable-background:new 0 0 370 370;" xml:space="preserve" width="512px" height="512px" class=""><g><g id="XMLID_1555_">
	<rect id="XMLID_1556_" x="125.311" y="220" style="fill:#FF9811;" width="20" height="150" data-original="#FF9811" class=""/>
	<polygon id="XMLID_34_" style="fill:#FF9811;" points="125.311,370 125.311,350 145.311,350 185.311,370  " data-original="#FF9811" class=""/>
	<path id="XMLID_33_" style="fill:#A15557" d="M334.222,42.385c0,0,3.182,18.031-7.072,28.283   c-10.252,10.254-28.283,7.072-28.283,7.072s-3.535-17.678,7.07-28.285C316.544,38.849,334.222,42.385,334.222,42.385z" data-original="#EA348B" class="" data-old_color="#a15557"/>
	<path id="XMLID_1557_" style="fill:#A15557" d="M344.688,186.818c0,24.852-20.147,45-45,45s-45-20.148-45-45c0-36,45-108,45-108   S344.688,150.818,344.688,186.818z" data-original="#EA348B" class="" data-old_color="#a15557"/>
	<path id="XMLID_1558_" style="fill:#7C1D30" d="M299.688,231.818c-24.853,0-45-20.148-45-45c0-36,45-108,45-108   S299.688,160.719,299.688,231.818z" data-original="#AF2768" class="active-path" data-old_color="#641C2A"/>
	<polygon id="XMLID_1559_" style="fill:#FF9811;" points="224.688,31.818 324.688,91.818 204.688,61.818  " data-original="#FF9811" class=""/>
	<ellipse id="XMLID_1560_" style="fill:#ECEDED" cx="184.688" cy="40.909" rx="50" ry="40.909" data-original="#CCF8F3" class="" data-old_color="#CCF8F3"/>
	
		<ellipse id="XMLID_28_" transform="matrix(-0.2139 -0.9769 0.9769 -0.2139 -15.5453 355.4509)" style="fill:#ECEDED" cx="135.249" cy="183.98" rx="55.002" ry="100.004" data-original="#CCF8F3" class="" data-old_color="#CCF8F3"/>
	<path id="XMLID_1561_" style="fill:#ECEDED" d="M135.311,128.064c-3.908,0.59-7.857,1.313-11.836,2.184   c-53.951,11.813-92.42,45.443-85.922,75.115c6.022,27.512,48.588,41.959,97.758,34.502V128.064z" data-original="#00D7DF" class="" data-old_color="#00D7DF"/>
	<g id="XMLID_1562_">
		<path id="XMLID_1563_" style="fill:#ECEDED" d="M218.688,184.818c-8.284,0-15-6.716-15-15c0-20.759-16.992-41.46-33.424-61.481    c-17.49-21.309-35.576-43.342-35.576-68.645c0-8.284,6.716-15,15-15s15,6.716,15,15c0,14.566,13.972,31.59,28.765,49.611    c18.859,22.978,40.235,49.02,40.235,80.514C233.688,178.102,226.973,184.818,218.688,184.818z" data-original="#CCF8F3" class="" data-old_color="#CCF8F3"/>
	</g>
	<circle id="XMLID_1564_" style="fill:#003638;" cx="194.688" cy="41.818" r="7.5" data-original="#003638"/>
	<circle id="XMLID_1565_" style="fill:#FF9811;" cx="135.311" cy="295" r="15" data-original="#FF9811" class=""/>
	<path id="XMLID_1566_" style="fill:#ECEDED" d="M135.271,214.109c-30.89-8.509-57.018-29.558-72.352-57.146   c-23.231,15.522-40.397,49.396-37.231,65.855c3.094,16.092,58.495,25.311,109.583,17.1V214.109z" data-original="#006C70" class="" data-old_color="#006C70"/>
	<path id="XMLID_1567_" style="fill:#ECEDED" d="M165.688,218.237c-10.493,0-20.694-1.452-30.429-4.136v25.812   c3.948-0.634,7.873-1.362,11.743-2.21c25.131-5.503,46.898-15.74,62.33-28.105C195.788,215.155,181.044,218.237,165.688,218.237z" data-original="#00A0A6" class="" data-old_color="#00A0A6"/>
</g></g> </svg>
